{
    "accessors" : [
        {
            "bufferView" : 0,
            "componentType" : 5123,
            "count" : 15600,
            "max" : [
                8232
            ],
            "min" : [
                0
            ],
            "type" : "SCALAR"
        },
        {
            "bufferView" : 1,
            "componentType" : 5126,
            "count" : 8233,
            "max" : [
                117.5,
                117.5,
                137.5
            ],
            "min" : [
                -117.5,
                -117.5,
                -137.5
            ],
            "type" : "VEC3"
        },
        {
            "bufferView" : 2,
            "componentType" : 5126,
            "count" : 8233,
            "max" : [
                1.0,
                1.0,
                1.0
            ],
            "min" : [
                -1.0,
                -1.0,
                -1.0
            ],
            "type" : "VEC3"
        },
        {
            "bufferView" : 3,
            "componentType" : 5126,
            "count" : 8233,
            "max" : [
                1.0,
                1.0
            ],
            "min" : [
                0.0,
                0.0003044605255126953
            ],
            "type" : "VEC2"
        },
        {
            "bufferView" : 4,
            "componentType" : 5123,
            "count" : 2346,
            "max" : [
                1933
            ],
            "min" : [
                0
            ],
            "type" : "SCALAR"
        },
        {
            "bufferView" : 5,
            "componentType" : 5126,
            "count" : 1934,
            "max" : [
                7.85124397277832,
                9.036826133728027,
                7.814026832580566
            ],
            "min" : [
                -11.949180603027344,
                -8.963173866271973,
                -11.986398696899414
            ],
            "type" : "VEC3"
        },
        {
            "bufferView" : 6,
            "componentType" : 5126,
            "count" : 1934,
            "max" : [
                1.0,
                1.0,
                1.0
            ],
            "min" : [
                -1.0,
                -1.0,
                -1.0
            ],
            "type" : "VEC3"
        },
        {
            "bufferView" : 7,
            "componentType" : 5126,
            "count" : 1934,
            "max" : [
                1.0,
                1.0
            ],
            "min" : [
                0.0,
                -0.0038299560546875
            ],
            "type" : "VEC2"
        },
        {
            "bufferView" : 8,
            "componentType" : 5123,
            "count" : 4842,
            "max" : [
                2531
            ],
            "min" : [
                0
            ],
            "type" : "SCALAR"
        },
        {
            "bufferView" : 9,
            "componentType" : 5126,
            "count" : 2532,
            "max" : [
                97.5,
                97.5,
                137.5
            ],
            "min" : [
                -97.5,
                -103.5,
                -137.5
            ],
            "type" : "VEC3"
        },
        {
            "bufferView" : 10,
            "componentType" : 5126,
            "count" : 2532,
            "max" : [
                1.0,
                1.0,
                1.0
            ],
            "min" : [
                -1.0,
                -1.0,
                -1.0
            ],
            "type" : "VEC3"
        },
        {
            "bufferView" : 11,
            "componentType" : 5126,
            "count" : 2532,
            "max" : [
                0.9746569991111755,
                0.9995657964900602
            ],
            "min" : [
                0.0004342035099398345,
                0.0004341602325439453
            ],
            "type" : "VEC2"
        }
    ],
    "asset" : {
        "generator" : "Khronos Blender glTF 2.0 exporter",
        "version" : "2.0"
    },
    "bufferViews" : [
        {
            "buffer" : 0,
            "byteLength" : 31200,
            "byteOffset" : 0,
            "target" : 34963
        },
        {
            "buffer" : 0,
            "byteLength" : 98796,
            "byteOffset" : 31200,
            "target" : 34962
        },
        {
            "buffer" : 0,
            "byteLength" : 98796,
            "byteOffset" : 129996,
            "target" : 34962
        },
        {
            "buffer" : 0,
            "byteLength" : 65864,
            "byteOffset" : 228792,
            "target" : 34962
        },
        {
            "buffer" : 0,
            "byteLength" : 4692,
            "byteOffset" : 294656,
            "target" : 34963
        },
        {
            "buffer" : 0,
            "byteLength" : 23208,
            "byteOffset" : 299348,
            "target" : 34962
        },
        {
            "buffer" : 0,
            "byteLength" : 23208,
            "byteOffset" : 322556,
            "target" : 34962
        },
        {
            "buffer" : 0,
            "byteLength" : 15472,
            "byteOffset" : 345764,
            "target" : 34962
        },
        {
            "buffer" : 0,
            "byteLength" : 9684,
            "byteOffset" : 361236,
            "target" : 34963
        },
        {
            "buffer" : 0,
            "byteLength" : 30384,
            "byteOffset" : 370920,
            "target" : 34962
        },
        {
            "buffer" : 0,
            "byteLength" : 30384,
            "byteOffset" : 401304,
            "target" : 34962
        },
        {
            "buffer" : 0,
            "byteLength" : 20256,
            "byteOffset" : 431688,
            "target" : 34962
        }
    ],
    "buffers" : [
        {
            "byteLength" : 451944,
            "uri" : "skyminer_2_avec_materials.bin"
        }
    ],
    "materials" : [
        {
            "alphaMode" : "BLEND",
            "name" : "Material",
            "pbrMetallicRoughness" : {
                "baseColorFactor" : [
                    1.0,
                    1.0,
                    1.0,
                    0.15
                ],
                "metallicFactor" : 1.0,
                "roughnessFactor" : 0.0
            }
        },
        {
            "name" : "Material",
            "pbrMetallicRoughness" : {
                "baseColorFactor" : [
                    0.8,
                    0.694,
                    0.114,
                    1.0
                ],
                "metallicFactor" : 1.0,
                "roughnessFactor" : 0.0
            }
        }
    ],
    "meshes" : [
        {
            "name" : "Cadre",
            "primitives" : [
                {
                    "attributes" : {
                        "NORMAL" : 2,
                        "POSITION" : 1,
                        "TEXCOORD_0" : 3
                    },
                    "indices" : 0,
                    "material" : 1
                }
            ]
        },
        {
            "name" : "Equerre",
            "primitives" : [
                {
                    "attributes" : {
                        "NORMAL" : 6,
                        "POSITION" : 5,
                        "TEXCOORD_0" : 7
                    },
                    "indices" : 4,
                    "material" : 1
                }
            ]
        },
        {
            "name" : "Plexi",
            "primitives" : [
                {
                    "attributes" : {
                        "NORMAL" : 10,
                        "POSITION" : 9,
                        "TEXCOORD_0" : 11
                    },
                    "indices" : 8,
                    "material" : 0
                }
            ]
        },
        {
            "name" : "Plexi_Plexi",
            "primitives" : [
                {
                    "attributes" : {
                        "NORMAL" : 10,
                        "POSITION" : 9,
                        "TEXCOORD_0" : 11
                    },
                    "indices" : 8,
                    "material" : 0
                }
            ]
        }
    ],
    "nodes" : [
        {
            "mesh" : 1,
            "name" : "Equerre_proxy",
            "rotation" : [
                -0.5000000596046448,
                -0.5,
                0.4999999403953552,
                0.4999999701976776
            ],
            "translation" : [
                -91.43122863769531,
                91.30499267578125,
                127.56298065185547
            ]
        },
        {
            "mesh" : 1,
            "name" : "Equerre_proxy.000",
            "rotation" : [
                1.0,
                -0.0,
                0.0,
                0.0
            ],
            "scale" : [
                -1.0,
                -1.0,
                -1.0
            ],
            "translation" : [
                -91.33573913574219,
                -107.60731506347656,
                111.41079711914062
            ]
        },
        {
            "mesh" : 1,
            "name" : "Equerre_proxy.001",
            "translation" : [
                91.40145111083984,
                107.56232452392578,
                111.4107894897461
            ]
        },
        {
            "mesh" : 1,
            "name" : "Equerre_proxy.002",
            "rotation" : [
                -0.0,
                -0.0,
                -1.0,
                0.0
            ],
            "scale" : [
                -1.0,
                -1.0,
                -1.0
            ],
            "translation" : [
                91.40145111083984,
                107.56232452392578,
                -111.4256591796875
            ]
        },
        {
            "mesh" : 1,
            "name" : "Equerre_proxy.003",
            "rotation" : [
                0.0,
                1.0,
                -0.0,
                0.0
            ],
            "translation" : [
                -91.33573913574219,
                107.56232452392578,
                -111.4256591796875
            ]
        },
        {
            "mesh" : 1,
            "name" : "Equerre_proxy.004",
            "rotation" : [
                1.0,
                -0.0,
                0.0,
                0.0
            ],
            "scale" : [
                -1.0,
                -1.0,
                -1.0
            ],
            "translation" : [
                -91.33573913574219,
                107.56232452392578,
                111.41079711914062
            ]
        },
        {
            "mesh" : 1,
            "name" : "Equerre_proxy.005",
            "rotation" : [
                0.0,
                1.0,
                -0.0,
                0.0
            ],
            "translation" : [
                -91.33573913574219,
                -107.60731506347656,
                -111.4256591796875
            ]
        },
        {
            "mesh" : 1,
            "name" : "Equerre_proxy.006",
            "rotation" : [
                -0.0,
                -0.0,
                -1.0,
                0.0
            ],
            "scale" : [
                -1.0,
                -1.0,
                -1.0
            ],
            "translation" : [
                91.40145111083984,
                -107.60731506347656,
                -111.4256591796875
            ]
        },
        {
            "mesh" : 1,
            "name" : "Equerre_proxy.007",
            "translation" : [
                91.40145111083984,
                -107.60731506347656,
                111.4107894897461
            ]
        },
        {
            "mesh" : 1,
            "name" : "Equerre_proxy.008",
            "rotation" : [
                0.5,
                -0.5000000596046448,
                -0.4999999701976776,
                0.4999999403953552
            ],
            "scale" : [
                -1.0,
                -1.0,
                -1.0
            ],
            "translation" : [
                91.40296936035156,
                91.34375762939453,
                127.44184875488281
            ]
        },
        {
            "mesh" : 1,
            "name" : "Equerre_proxy.009",
            "rotation" : [
                0.5,
                -0.5000000596046448,
                -0.4999999701976776,
                0.4999999403953552
            ],
            "scale" : [
                -1.0,
                -1.0,
                -1.0
            ],
            "translation" : [
                91.40296936035156,
                91.34375762939453,
                -127.55314636230469
            ]
        },
        {
            "mesh" : 1,
            "name" : "Equerre_proxy.010",
            "rotation" : [
                -0.5000000596046448,
                -0.5,
                0.4999999403953552,
                0.4999999701976776
            ],
            "translation" : [
                -91.43122863769531,
                91.30499267578125,
                -127.4320068359375
            ]
        },
        {
            "mesh" : 0,
            "name" : "Cadre"
        },
        {
            "mesh" : 3,
            "name" : "Plexi"
        },
        {
            "mesh" : 1,
            "name" : "Equerre",
            "translation" : [
                -6.050818920135498,
                -0.036826375871896744,
                -6.013601779937744
            ]
        }
    ],
    "scene" : 0,
    "scenes" : [
        {
            "name" : "Scene",
            "nodes" : [
                11,
                10,
                9,
                0,
                8,
                7,
                6,
                1,
                5,
                4,
                3,
                2,
                12,
                13
            ]
        }
    ]
}
